<?xml version="1.0" encoding="UTF-8"?>
<svg id="Layer_2" data-name="Layer 2" xmlns="http://www.w3.org/2000/svg" xmlns:xlink="http://www.w3.org/1999/xlink" viewBox="0 0 557.9 330.86">
  <defs>
    <style>
      .cls-1 {
        fill: #0071bc;
      }

      .cls-1, .cls-2, .cls-3, .cls-4 {
        stroke-width: 0px;
      }

      .cls-5 {
        stroke: #0071bc;
      }

      .cls-5, .cls-6, .cls-3, .cls-7 {
        fill: none;
      }

      .cls-5, .cls-6, .cls-7 {
        stroke-miterlimit: 10;
      }

      .cls-5, .cls-7 {
        stroke-width: .5px;
      }

      .cls-6 {
        stroke: gray;
        stroke-width: .1px;
      }

      .cls-4 {
        fill: #333;
      }

      .cls-8 {
        clip-path: url(#clippath);
      }

      .cls-9 {
        opacity: .43;
      }

      .cls-7 {
        stroke: #000;
      }
    </style>
    <clipPath id="clippath">
      <polygon class="cls-3" points="302.16 170.77 182.72 330.86 98.39 109.06 194.98 0 302.16 170.77"/>
    </clipPath>
  </defs>
  <g id="Essentials">
    <g class="cls-9">
      <g>
        <polyline class="cls-5" points="2.63 125.11 396.12 125.11 484.91 125.11"/>
        <polygon class="cls-1" points="3.04 122.07 3.04 128.14 0 125.11 3.04 122.07"/>
      </g>
    </g>
    <g class="cls-9">
      <g>
        <polyline class="cls-5" points="61.47 215.46 491.74 217.38 543.75 217.38"/>
        <polygon class="cls-1" points="543.34 214.34 543.34 220.42 546.38 217.38 543.34 214.34"/>
      </g>
    </g>
    <g class="cls-9">
      <g>
        <polyline class="cls-5" points="135.86 277.12 519.44 279.04 555.27 279.04"/>
        <polygon class="cls-1" points="554.86 276.01 554.86 282.08 557.9 279.04 554.86 276.01"/>
      </g>
    </g>
    <g class="cls-8">
      <g>
        <line class="cls-6" x1="354.15" y1="369.61" x2="354.15" y2="-88.06"/>
        <line class="cls-6" x1="323.64" y1="-88.06" x2="323.64" y2="369.61"/>
        <line class="cls-6" x1="293.13" y1="369.61" x2="293.13" y2="-88.06"/>
        <line class="cls-6" x1="262.62" y1="-88.06" x2="262.62" y2="369.61"/>
        <line class="cls-6" x1="232.11" y1="369.61" x2="232.11" y2="-88.06"/>
        <line class="cls-6" x1="201.59" y1="-88.06" x2="201.59" y2="369.61"/>
        <line class="cls-6" x1="171.08" y1="369.61" x2="171.08" y2="-88.06"/>
        <line class="cls-6" x1="140.57" y1="-88.06" x2="140.57" y2="369.61"/>
        <line class="cls-6" x1="110.06" y1="369.61" x2="110.06" y2="-88.06"/>
        <line class="cls-6" x1="79.55" y1="-88.06" x2="79.55" y2="369.61"/>
        <line class="cls-6" x1="-11.98" y1="278.07" x2="445.68" y2="278.07"/>
        <line class="cls-6" x1="541.69" y1="247.56" x2="84.02" y2="247.56"/>
        <line class="cls-6" x1="-11.98" y1="217.05" x2="445.68" y2="217.05"/>
        <line class="cls-6" x1="445.68" y1="186.54" x2="-11.98" y2="186.54"/>
        <line class="cls-6" x1="-11.98" y1="156.03" x2="445.68" y2="156.03"/>
        <line class="cls-6" x1="445.68" y1="125.52" x2="-11.98" y2="125.52"/>
        <line class="cls-6" x1="-11.98" y1="95" x2="445.68" y2="95"/>
        <line class="cls-6" x1="445.68" y1="64.49" x2="-11.98" y2="64.49"/>
        <line class="cls-6" x1="-11.98" y1="33.98" x2="445.68" y2="33.98"/>
        <line class="cls-6" x1="445.68" y1="3.47" x2="-11.98" y2="3.47"/>
      </g>
    </g>
    <g class="cls-9">
      <g>
        <line class="cls-7" x1="74.93" y1="53.05" x2="74.93" y2="249.67"/>
        <polygon class="cls-2" points="77.96 249.26 71.89 249.26 74.93 252.3 77.96 249.26"/>
      </g>
    </g>
    <g class="cls-9">
      <g>
        <line class="cls-7" x1="201.08" y1="13.35" x2="201.08" y2="314.81"/>
        <polygon class="cls-2" points="204.12 314.4 198.04 314.4 201.08 317.44 204.12 314.4"/>
      </g>
    </g>
    <g>
      <path class="cls-4" d="m201.08,239.07h8.25c8.18,0,10.17,4.24,10.17,11.39v14.78c0,5.89-1.01,12.38-10.18,12.38h-8.24v-38.55Zm5.95,33.49h1.91c3.91,0,4.51-2.52,4.51-6.51v-16.06c0-3.55-.63-5.81-4.55-5.81h-1.87v28.38Z"/>
      <path class="cls-4" d="m229.02,264.27v4.39c0,2.31.53,4.42,2.79,4.42,2.37,0,2.66-2.12,2.66-4.27v-.14h5.79v.14c0,3.13-.67,9.29-8.32,9.29s-8.72-4.71-8.72-10.75v-9.79c0-4.09,1.29-10.26,8.69-10.26,6.38,0,8.46,4.3,8.46,10.21v6.77h-11.35Zm5.66-4.66v-3.06c0-2.76-.64-4.26-2.77-4.26-1.91,0-2.84,1.36-2.84,4.26v3.05h5.61Z"/>
      <path class="cls-4" d="m249.17,268.27v1.36c0,1.84.52,3.44,2.42,3.44,1.62,0,2.31-.98,2.31-2.97s-.54-3.26-4.16-5.6c-4.11-2.64-6.09-4.81-6.09-9.08,0-5.05,2.71-8.14,7.91-8.14,5.65,0,7.89,3.11,7.89,8.59v1.2h-5.74v-1.84c0-2.08-.7-2.93-2.11-2.93s-2.05,1.06-2.05,2.64c0,1.67.56,2.43,3.28,4.17,5.23,3.32,7.07,5.44,7.07,10.33,0,5.72-2.87,8.64-8.48,8.64-6.71,0-8.25-4.22-8.25-8.48v-1.33h6Z"/>
      <path class="cls-4" d="m263.64,247.75h5.95v29.87h-5.95v-29.87Zm.05-10.36h5.95v6.35h-5.95v-6.35Z"/>
      <path class="cls-4" d="m291.29,275.96c0,6.62-.64,12.14-9.15,12.14-7.11,0-8.31-4.46-8.31-7.78v-.12h5.95v.13c0,.81.3,2.86,2.68,2.86s2.88-1.89,2.88-5.66v-3.26c-.76,1.66-2.41,2.74-4.92,2.74-5.44,0-6.64-4.23-6.64-9.36v-11.28c0-4.06,1.53-9.08,7.26-9.08,3.14,0,4.43,1.46,4.93,3.1,0-.9.17-2.14.27-2.63h5.15c-.06,1.84-.12,4.31-.12,7.46v20.75Zm-11.55-19.23v10.49c0,3.04.71,4.57,2.64,4.57,2.54,0,2.97-2,2.97-5.66v-8.75c0-2.54-.26-4.76-2.66-4.76-1.9,0-2.95,1.22-2.95,4.11Z"/>
      <path class="cls-4" d="m296.25,256.96c0-6.07,0-7.86-.06-9.22h5.68c.11.69.22,1.86.22,2.72.87-1.73,2.47-3.18,5.51-3.18,3.63,0,6.14,2.2,6.14,7.85v22.49h-5.95v-21.36c0-2.7-.93-3.64-2.57-3.64-2.12,0-3.02,1.12-3.02,5.18v19.83h-5.95v-20.66Z"/>
      <path class="cls-4" d="m323.68,264.27v4.39c0,2.31.53,4.42,2.79,4.42,2.37,0,2.66-2.12,2.66-4.27v-.14h5.79v.14c0,3.13-.67,9.29-8.32,9.29s-8.72-4.71-8.72-10.75v-9.79c0-4.09,1.29-10.26,8.69-10.26,6.38,0,8.46,4.3,8.46,10.21v6.77h-11.35Zm5.66-4.66v-3.06c0-2.76-.64-4.26-2.77-4.26-1.91,0-2.84,1.36-2.84,4.26v3.05h5.61Z"/>
      <path class="cls-4" d="m356.05,237.39v31.95c0,4.55,0,6.66.06,8.28h-5.68c-.11-.75-.22-2.37-.22-2.84-.93,1.93-2.36,3.3-5.27,3.3-5.37,0-6.4-4.28-6.4-10.07v-11.7c0-5.19,1.98-9.03,6.86-9.03,1.99,0,3.89.59,4.71,2.11v-12.01h5.95Zm-11.56,19.3v11.81c0,2.76.65,4.26,2.71,4.26,2.43,0,2.9-2.18,2.9-5.59v-9.19c0-3.23-.3-5.36-2.83-5.36-2.07,0-2.78,1.57-2.78,4.07Z"/>
      <path class="cls-4" d="m369.15,277.62v-24.66h-2.93v-5.21h2.93v-2.94c0-4.12,1.69-7.71,7.13-7.71.87,0,1.73.06,2.28.22v5.29c-.47-.06-.73-.07-1.1-.07-1.9,0-2.36,1.03-2.36,3v2.2h3.62v5.21h-3.62v24.66h-5.95Z"/>
      <path class="cls-4" d="m398.13,256.92v11.48c0,6.4-3.18,9.68-8.82,9.68s-8.69-3.36-8.69-9.65v-11.76c0-6.47,3.67-9.39,8.87-9.39s8.64,3.32,8.64,9.63Zm-11.56-.34v12.07c0,2.41.73,4.17,2.85,4.17,1.99,0,2.75-1.47,2.75-4.27v-12.02c0-2.3-.62-3.98-2.8-3.98-1.94,0-2.8,1.39-2.8,4.03Z"/>
      <path class="cls-4" d="m402.27,257.87c0-4.96.05-7.07-.06-10.12h5.63c.06.57.17,3.23.17,4.84,1.18-4.04,3.81-5.27,6.58-5.29v7.33c-3.41,0-6.38.87-6.38,6.99v16h-5.95v-19.75Z"/>
      <path class="cls-4" d="m440.6,267.7v.4c0,5.39-1.36,9.98-8.32,9.98s-8.14-4.61-8.14-10.78v-10.25c0-4.88,1.61-9.76,8.43-9.76,7.31,0,8.03,5.29,8.03,8.99v1.12h-5.85v-1.26c0-2.3-.37-3.84-2.29-3.84-1.76,0-2.36,1.37-2.36,3.89v12.95c0,2.07.38,3.94,2.35,3.94s2.31-1.51,2.31-3.95v-1.42h5.85Z"/>
      <path class="cls-4" d="m444.11,277.62v-40.24h5.95v40.24h-5.95Z"/>
      <path class="cls-4" d="m470.28,271.51c0,1.88,0,4.98.12,6.12h-5.43c-.12-.56-.33-1.77-.38-2.19-1.02,1.83-2.63,2.65-4.93,2.65-4.49,0-6.3-4.16-6.3-8.67v-.52c0-7.36,4.96-9.32,10.34-9.32h.69v-3.81c0-2.34-.28-3.66-2.09-3.66s-2.17,1.37-2.17,3.23v.49h-5.85v-.39c0-4.32,1.66-8.15,8.22-8.15,5.77,0,7.78,3.18,7.78,8.01v16.21Zm-5.79-7.43h-.99c-2.71,0-4.5,1.03-4.5,4.75v.47c0,2.11.76,3.61,2.62,3.61,1.99,0,2.87-1.37,2.87-5.4v-3.42Z"/>
      <path class="cls-4" d="m475.34,257.87c0-4.96.05-7.07-.06-10.12h5.63c.06.57.17,3.23.17,4.84,1.18-4.04,3.81-5.27,6.58-5.29v7.33c-3.41,0-6.38.87-6.38,6.99v16h-5.95v-19.75Z"/>
      <path class="cls-4" d="m490.46,247.75h5.95v29.87h-5.95v-29.87Zm.05-10.36h5.95v6.35h-5.95v-6.35Z"/>
      <path class="cls-4" d="m499.16,247.75h3.17v-7.17h5.94v7.17h3.75v5.21h-3.75v17.66c0,1.41.19,2.54,2,2.54.53,0,1.3-.06,1.62-.17v4.48c-1,.48-2.51.59-3.63.59-3.73,0-5.93-1.21-5.93-6.38v-18.73h-3.17v-5.21Z"/>
      <path class="cls-4" d="m520.49,247.75c1.6,9.78,3.09,18.9,3.32,22.76h.16c.53-5.14,1.73-11.09,3.61-22.76h5.95l-6.7,31.3c-1.87,8.6-4.98,8.99-8.39,8.99-1.02,0-1.97-.12-2.77-.23l.1-5.29s1.05.13,1.75.13c1.87,0,2.83-.65,3.37-3.85l-6.78-31.06h6.37Z"/>
    </g>
    <g>
      <path class="cls-2" d="m104.95,217.07c-8.9,0-15.97-2.56-21.22-7.69-5.25-5.13-7.96-12.5-8.15-22.1h16.39c.67,8.37,4.97,12.56,12.89,12.56,2.95,0,5.45-.76,7.5-2.28,2.06-1.52,3.08-3.84,3.08-6.96,0-2.13-.64-3.92-1.93-5.35-1.29-1.44-2.59-2.44-3.91-3.02-1.32-.57-3.82-1.48-7.5-2.71-.18-.08-.31-.14-.37-.19-.06-.04-.15-.08-.28-.12-.12-.04-.25-.06-.37-.06-2.82-.9-5.14-1.7-6.95-2.4-1.81-.7-3.87-1.76-6.17-3.2-2.3-1.43-4.13-3.02-5.48-4.74-1.35-1.72-2.5-4-3.45-6.83s-1.43-6.01-1.43-9.54c0-9.03,2.41-15.8,7.23-20.32,4.82-4.51,11.12-6.77,18.92-6.77s13.61,2.3,18.37,6.89c4.76,4.6,7.29,11.33,7.6,20.19h-15.93c-.31-3.37-1.38-5.97-3.22-7.82-1.84-1.85-4.3-2.77-7.37-2.77-2.82,0-5.11.76-6.86,2.28-1.75,1.52-2.62,3.51-2.62,5.97,0,2.79,1.04,4.82,3.13,6.09,2.09,1.27,6.01,2.77,11.78,4.49,3.62,1.15,6.6,2.28,8.93,3.38,2.33,1.11,4.71,2.69,7.14,4.74,2.42,2.05,4.24,4.7,5.43,7.94,1.2,3.24,1.79,7.12,1.79,11.64,0,8.95-2.53,15.96-7.6,21.05-5.06,5.09-11.52,7.63-19.38,7.63Z"/>
      <path class="cls-2" d="m137.81,235.95v-15.64h5.16c4.11,0,6.17-2.22,6.17-6.65,0-2.13-.95-6.48-2.85-13.05l-13.9-48.51h15.83l6.35,26.84,2.95,14.53h.18c.86-5.58,1.78-10.42,2.76-14.53l6.17-26.84h15.01l-16.3,63.9c-1.9,7.39-4.16,12.56-6.77,15.51-2.61,2.95-6.28,4.43-11,4.43h-9.76Z"/>
      <path class="cls-2" d="m184.95,217.07v-63.04h14.45v8.62h.28c3.62-6.98,8.47-10.46,14.55-10.46,5.09,0,9.1,2.2,12.01,6.59,2.91,4.39,4.37,10.16,4.37,17.3v41h-15.01v-36.94c0-3.45-.63-6.18-1.89-8.19-1.26-2.01-3.08-3.02-5.48-3.02s-4.45,1.23-5.98,3.69c-1.53,2.46-2.3,5.66-2.3,9.6v34.84h-15.01Z"/>
      <path class="cls-2" d="m248.93,217.07l-16.3-63.04h15.47l6.44,28.44,2.58,12.68h.18c.8-4.27,1.66-8.5,2.58-12.68l6.54-28.44h15.01l-16.3,63.04h-16.2Z"/>
      <path class="cls-2" d="m305.92,217.07c-7.61,0-13.7-3.14-18.27-9.42-4.57-6.28-6.86-14.3-6.86-24.07s2.26-17.44,6.77-23.76c4.51-6.32,10.33-9.48,17.45-9.48,6.44,0,11.81,2.63,16.11,7.88,5.65,6.89,8.41,17.11,8.29,30.66h-33.88c.49,4.35,1.63,7.74,3.41,10.16,1.78,2.42,4.17,3.63,7.18,3.63,3.87,0,6.47-2.09,7.83-6.28h14.64c-1.11,6.07-3.74,11.04-7.92,14.9-4.11,3.86-9.02,5.79-14.73,5.79Zm-10.31-40.14h18.6c-.25-3.77-1.18-6.77-2.81-8.99-1.63-2.22-3.67-3.32-6.12-3.32-5.34,0-8.56,4.11-9.67,12.31Z"/>
      <path class="cls-2" d="m328.3,217.07l16.39-33.12-14.82-29.92h17.12l7,16.25h.18l6.63-16.25h15.74l-13.99,29.67,16.02,33.37h-17.4l-7.73-18.84h-.18l-8.56,18.84h-16.39Z"/>
    </g>
  </g>
</svg>