<?xml version="1.0" encoding="UTF-8"?>
<svg id="Essentials" xmlns="http://www.w3.org/2000/svg" viewBox="0 0 167.99 167.67">
  <defs>
    <style>
      .cls-1 {
        fill: #333;
        stroke-width: 0px;
      }
    </style>
  </defs>
  <path class="cls-1" d="m71.65,0C32.08,0,0,32.08,0,71.65s32.08,71.65,71.65,71.65c14.43,0,27.87-4.27,39.11-11.6,8.48-5.54,15.7-12.82,21.18-21.32,7.19-11.17,11.36-24.45,11.36-38.72C143.3,32.08,111.22,0,71.65,0Zm28.33,89.84c-2.58,3.99-5.97,7.42-9.95,10.02-5.28,3.44-11.6,5.45-18.38,5.45-18.59,0-33.66-15.07-33.66-33.66s15.07-33.66,33.66-33.66,33.66,15.07,33.66,33.66c0,6.7-1.96,12.95-5.33,18.19Z"/>
  <path class="cls-1" d="m167.99,153.91c0,3.52-1.35,7.04-4.03,9.73-5.36,5.37-14.07,5.37-19.45,0l-29.06-29.06c7.76-5.06,14.37-11.73,19.38-19.51l29.13,29.13c2.69,2.69,4.03,6.21,4.03,9.72Z"/>
</svg>