<?xml version="1.0" encoding="UTF-8"?>
<svg id="Essentials" xmlns="http://www.w3.org/2000/svg" viewBox="0 0 169.8 169.64">
  <defs>
    <style>
      .cls-1 {
        fill: none;
        stroke: #333;
        stroke-miterlimit: 10;
        stroke-width: 5px;
      }
    </style>
  </defs>
  <path class="cls-1" d="m163.01,142.16l-29.15-29.15c7.34-11.23,11.63-24.63,11.63-39.02C145.5,34.57,113.43,2.5,74,2.5S2.5,34.57,2.5,74s32.07,71.5,71.5,71.5c14.47,0,27.95-4.34,39.22-11.76l29.11,29.11c5.71,5.71,14.98,5.71,20.69,0,5.71-5.71,5.71-14.98,0-20.69ZM31.12,74c0-23.65,19.24-42.88,42.88-42.88s42.88,19.24,42.88,42.88-19.24,42.88-42.88,42.88-42.88-19.24-42.88-42.88Z"/>
</svg>