<?xml version="1.0" encoding="UTF-8"?>
<svg id="Essentials" xmlns="http://www.w3.org/2000/svg" viewBox="0 0 175.37 175.21">
  <defs>
    <style>
      .cls-1 {
        fill: none;
        stroke: #333;
        stroke-miterlimit: 10;
        stroke-width: 15px;
      }
    </style>
  </defs>
  <path class="cls-1" d="m163.7,143.41l-28.36-28.36c7.15-10.93,11.32-23.97,11.32-37.97,0-38.37-31.21-69.58-69.58-69.58S7.5,38.71,7.5,77.08s31.21,69.58,69.58,69.58c14.08,0,27.2-4.22,38.16-11.44l28.33,28.33c5.56,5.56,14.57,5.56,20.13,0h0c5.56-5.56,5.56-14.57,0-20.13ZM35.35,77.08c0-23.01,18.72-41.73,41.73-41.73s41.73,18.72,41.73,41.73-18.72,41.73-41.73,41.73-41.73-18.72-41.73-41.73Z"/>
</svg>