<?xml version="1.0" encoding="UTF-8"?>
<svg id="Essentials" xmlns="http://www.w3.org/2000/svg" viewBox="0 0 167.84 167.52">
  <defs>
    <style>
      .cls-1 {
        fill: #333;
        stroke-width: 0px;
      }
    </style>
  </defs>
  <path class="cls-1" d="m70.29,0C31.47,0,0,31.47,0,70.29s31.47,70.29,70.29,70.29c14.16,0,27.34-4.19,38.37-11.38,8.32-5.43,15.4-12.58,20.78-20.92,7.05-10.96,11.14-23.99,11.14-37.99C140.58,31.47,109.11,0,70.29,0Zm38.83,95.23c-3.53,5.47-8.18,10.17-13.64,13.73-7.24,4.72-15.9,7.47-25.19,7.47-25.48,0-46.14-20.66-46.14-46.14s20.66-46.14,46.14-46.14,46.14,20.66,46.14,46.14c0,9.19-2.68,17.75-7.31,24.94Z"/>
  <path class="cls-1" d="m167.84,152.51c0,3.84-1.47,7.68-4.4,10.61-5.85,5.86-15.35,5.86-21.21,0l-31.7-31.7c8.46-5.52,15.67-12.79,21.14-21.28l31.77,31.77c2.93,2.93,4.4,6.77,4.4,10.6Z"/>
</svg>