<?xml version="1.0" encoding="UTF-8"?>
<svg id="Essentials" xmlns="http://www.w3.org/2000/svg" viewBox="0 0 184.49 184.33">
  <defs>
    <style>
      .cls-1 {
        fill: none;
        stroke: #333;
        stroke-miterlimit: 10;
        stroke-width: 20px;
      }
    </style>
  </defs>
  <path class="cls-1" d="m170.21,149.4l-29.09-29.09c7.33-11.21,11.61-24.58,11.61-38.94,0-39.35-32.01-71.37-71.37-71.37S10,42.01,10,81.37s32.01,71.37,71.37,71.37c14.45,0,27.89-4.33,39.14-11.74l29.06,29.06c5.7,5.7,14.95,5.7,20.65,0,5.7-5.7,5.7-14.95,0-20.65ZM38.56,81.37c0-23.6,19.2-42.8,42.8-42.8s42.8,19.2,42.8,42.8-19.2,42.8-42.8,42.8-42.8-19.2-42.8-42.8Z"/>
</svg>